<svg width="46" height="47" viewBox="0 0 46 47" fill="none" xmlns="http://www.w3.org/2000/svg">
<path d="M5.75 27.3333V18.7083C5.75 17.1205 7.03718 15.8333 8.625 15.8333C10.2128 15.8333 11.5 17.1205 11.5 18.7083V32.125C11.5 33.7128 12.7872 35 14.375 35C15.9628 35 17.25 33.7128 17.25 32.125V9.125C17.25 7.53718 18.5372 6.25 20.125 6.25C21.7128 6.25 23 7.53718 23 9.125V37.875C23 39.4628 24.2872 40.75 25.875 40.75C27.4628 40.75 28.75 39.4628 28.75 37.875V16.7917C28.75 15.2038 30.0372 13.9167 31.625 13.9167C33.2128 13.9167 34.5 15.2038 34.5 16.7917V30.2083C34.5 31.7961 35.7872 33.0833 37.375 33.0833C38.9628 33.0833 40.25 31.7961 40.25 30.2083V23.5" stroke="#F5FFFA" stroke-width="2.5" stroke-linecap="round" stroke-linejoin="round"/>
</svg>
